<svg width="106" height="62" viewBox="0 0 106 62" fill="none" xmlns="http://www.w3.org/2000/svg">
<path fill-rule="evenodd" clip-rule="evenodd" d="M52.8499 1.99609C53.7478 1.99609 54.5395 2.30378 55.3729 2.80591C56.1782 3.29113 57.097 4.00563 58.2413 4.89561L58.2769 4.92346L60.5582 6.69792L61.5529 7.47766C62.4572 8.20422 63.0927 8.806 63.4778 9.59299L63.568 9.79237C63.9887 10.7956 63.9712 11.9565 63.9712 13.6755V16.605C63.9712 18.4319 63.9712 19.8903 63.8175 21.0339C63.6685 22.1423 63.3627 23.0673 62.6903 23.8133L62.551 23.9591C61.7809 24.7292 60.8079 25.0667 59.6258 25.2256C58.716 25.348 57.6071 25.3721 56.2718 25.3771H49.428C48.0928 25.3721 46.9838 25.348 46.074 25.2256C44.9656 25.0766 44.0406 24.7708 43.2948 24.0984L43.1488 23.9591C42.3788 23.1891 42.0412 22.216 41.8823 21.0339C41.7656 20.1659 41.7376 19.1168 41.7308 17.8627L41.7286 16.5393V13.6755C41.7286 11.8418 41.7088 10.6425 42.2221 9.59299C42.7355 8.54368 43.6943 7.82359 45.1416 6.69792L47.4229 4.92346L48.2517 4.28073C49.041 3.67298 49.7166 3.17364 50.3269 2.80591C51.1603 2.30377 51.952 1.99612 52.8499 1.99609ZM52.8499 14.8272C51.237 14.8272 50.4304 14.8276 49.9292 15.3285C49.4282 15.8296 49.428 16.6364 49.428 18.2492V23.0958H56.2718V18.2492C56.2718 16.6363 56.2717 15.8296 55.7706 15.3285C55.2694 14.8276 54.4628 14.8272 52.8499 14.8272Z" fill="#593DFA"/>
<path d="M2.9996 54.418V36.7207H10.0854C11.3874 36.7207 12.4733 36.9136 13.3432 37.2996C14.2131 37.6856 14.8669 38.2214 15.3048 38.9069C15.7426 39.5867 15.9615 40.3702 15.9615 41.2573C15.9615 41.9486 15.8232 42.5564 15.5467 43.0806C15.2702 43.5991 14.89 44.0254 14.4061 44.3595C13.9279 44.6879 13.3806 44.9212 12.7642 45.0595V45.2323C13.4383 45.2611 14.0691 45.4512 14.6567 45.8026C15.25 46.154 15.7311 46.6466 16.0998 47.2803C16.4685 47.9082 16.6528 48.6571 16.6528 49.527C16.6528 50.466 16.4195 51.3042 15.9529 52.0416C15.492 52.7732 14.8093 53.3522 13.9049 53.7785C13.0004 54.2048 11.8857 54.418 10.5607 54.418H2.9996ZM6.74127 51.359H9.79164C10.8343 51.359 11.5948 51.1602 12.0729 50.7627C12.5511 50.3595 12.7902 49.8237 12.7902 49.1554C12.7902 48.6658 12.6721 48.2337 12.4359 47.8592C12.1997 47.4848 11.8627 47.191 11.4248 46.9778C10.9928 46.7647 10.4772 46.6581 9.87805 46.6581H6.74127V51.359ZM6.74127 44.1262H9.51512C10.0278 44.1262 10.4829 44.0369 10.8804 43.8583C11.2837 43.674 11.6005 43.4148 11.831 43.0806C12.0672 42.7465 12.1853 42.3461 12.1853 41.8795C12.1853 41.24 11.9577 40.7244 11.5026 40.3327C11.0533 39.941 10.4138 39.7451 9.58425 39.7451H6.74127V44.1262ZM25.0672 54.6772C23.7019 54.6772 22.5267 54.4007 21.5416 53.8476C20.5623 53.2888 19.8076 52.4996 19.2776 51.4799C18.7476 50.4545 18.4826 49.2419 18.4826 47.842C18.4826 46.4766 18.7476 45.2784 19.2776 44.2472C19.8076 43.216 20.5536 42.4124 21.5157 41.8363C22.4835 41.2602 23.6184 40.9722 24.9203 40.9722C25.796 40.9722 26.6111 41.1133 27.3658 41.3956C28.1262 41.6721 28.7887 42.0898 29.3533 42.6486C29.9236 43.2074 30.3672 43.9102 30.6841 44.757C31.0009 45.5981 31.1593 46.5832 31.1593 47.7123V48.7234H19.9516V46.4421H27.6942C27.6942 45.9121 27.579 45.4426 27.3485 45.0336C27.1181 44.6245 26.7984 44.3048 26.3893 44.0744C25.9861 43.8382 25.5166 43.7201 24.9808 43.7201C24.422 43.7201 23.9266 43.8497 23.4945 44.1089C23.0682 44.3624 22.7341 44.7052 22.4921 45.1372C22.2502 45.5636 22.1263 46.0388 22.1206 46.5631V48.732C22.1206 49.3888 22.2415 49.9562 22.4835 50.4343C22.7312 50.9125 23.0797 51.2812 23.5291 51.5404C23.9784 51.7997 24.5113 51.9293 25.1277 51.9293C25.5367 51.9293 25.9112 51.8717 26.2511 51.7565C26.591 51.6412 26.8819 51.4684 27.1239 51.238C27.3658 51.0075 27.5502 50.7253 27.6769 50.3911L31.0816 50.6158C30.9087 51.4339 30.5544 52.1482 30.0187 52.7588C29.4887 53.3637 28.8031 53.8361 27.9621 54.176C27.1267 54.5101 26.1618 54.6772 25.0672 54.6772ZM44.6051 44.9299L41.235 45.1372C41.1774 44.8492 41.0536 44.59 40.8635 44.3595C40.6734 44.1233 40.4228 43.9361 40.1117 43.7979C39.8064 43.6538 39.4405 43.5818 39.0142 43.5818C38.4439 43.5818 37.9629 43.7028 37.5711 43.9448C37.1794 44.1809 36.9835 44.4978 36.9835 44.8953C36.9835 45.2121 37.1103 45.48 37.3638 45.6989C37.6172 45.9178 38.0522 46.0935 38.6686 46.226L41.0709 46.71C42.3613 46.975 43.3233 47.4013 43.957 47.9889C44.5907 48.5765 44.9076 49.3484 44.9076 50.3047C44.9076 51.1746 44.6512 51.9379 44.1385 52.5947C43.6316 53.2514 42.9345 53.7641 42.0473 54.1328C41.1659 54.4957 40.1491 54.6772 38.997 54.6772C37.2399 54.6772 35.84 54.3114 34.7973 53.5798C33.7603 52.8424 33.1526 51.84 32.974 50.5726L36.5947 50.3825C36.7041 50.9183 36.9691 51.3273 37.3897 51.6096C37.8102 51.8861 38.3489 52.0243 39.0056 52.0243C39.6508 52.0243 40.1693 51.9005 40.561 51.6528C40.9585 51.3993 41.1602 51.0738 41.1659 50.6763C41.1602 50.3422 41.019 50.0685 40.7425 49.8554C40.466 49.6365 40.0397 49.4694 39.4636 49.3542L37.165 48.8962C35.8688 48.637 34.9039 48.1876 34.2702 47.5482C33.6422 46.9087 33.3283 46.0935 33.3283 45.1027C33.3283 44.2501 33.5587 43.5156 34.0196 42.8992C34.4862 42.2828 35.1401 41.8075 35.9812 41.4734C36.828 41.1392 37.8189 40.9722 38.9537 40.9722C40.6302 40.9722 41.9494 41.3265 42.9114 42.035C43.8793 42.7436 44.4438 43.7086 44.6051 44.9299ZM47.2256 59.3953V41.145H50.8549V43.3744H51.0191C51.1804 43.0173 51.4137 42.6543 51.7191 42.2856C52.0301 41.9112 52.4334 41.6001 52.9288 41.3524C53.43 41.0989 54.0522 40.9722 54.7953 40.9722C55.7632 40.9722 56.6561 41.2256 57.4741 41.7326C58.2922 42.2338 58.946 42.9913 59.4357 44.0052C59.9254 45.0134 60.1702 46.2779 60.1702 47.7988C60.1702 49.2793 59.9311 50.5294 59.453 51.5491C58.9806 52.563 58.3354 53.332 57.5173 53.8563C56.7051 54.3748 55.7949 54.634 54.7867 54.634C54.0724 54.634 53.4646 54.5159 52.9634 54.2797C52.468 54.0435 52.0618 53.7468 51.745 53.3897C51.4281 53.0267 51.1862 52.6609 51.0191 52.2922H50.9068V59.3953H47.2256ZM50.829 47.7815C50.829 48.5707 50.9385 49.2591 51.1574 49.8467C51.3763 50.4343 51.6931 50.8923 52.1079 51.2207C52.5227 51.5433 53.0268 51.7046 53.6201 51.7046C54.2193 51.7046 54.7262 51.5404 55.141 51.2121C55.5558 50.8779 55.8697 50.4171 56.0829 49.8295C56.3018 49.2361 56.4113 48.5534 56.4113 47.7815C56.4113 47.0153 56.3047 46.3413 56.0915 45.7594C55.8784 45.1776 55.5644 44.7225 55.1496 44.3941C54.7349 44.0657 54.225 43.9015 53.6201 43.9015C53.021 43.9015 52.514 44.06 52.0993 44.3768C51.6902 44.6937 51.3763 45.143 51.1574 45.7249C50.9385 46.3067 50.829 46.9922 50.829 47.7815ZM68.6214 54.6772C67.2791 54.6772 66.1183 54.392 65.1389 53.8217C64.1654 53.2456 63.4136 52.4449 62.8836 51.4194C62.3536 50.3883 62.0886 49.1929 62.0886 47.8333C62.0886 46.4622 62.3536 45.264 62.8836 44.2386C63.4136 43.2074 64.1654 42.4066 65.1389 41.8363C66.1183 41.2602 67.2791 40.9722 68.6214 40.9722C69.9636 40.9722 71.1216 41.2602 72.0952 41.8363C73.0745 42.4066 73.8292 43.2074 74.3592 44.2386C74.8892 45.264 75.1542 46.4622 75.1542 47.8333C75.1542 49.1929 74.8892 50.3883 74.3592 51.4194C73.8292 52.4449 73.0745 53.2456 72.0952 53.8217C71.1216 54.392 69.9636 54.6772 68.6214 54.6772ZM68.6387 51.8256C69.2493 51.8256 69.7591 51.6528 70.1682 51.3071C70.5772 50.9557 70.8854 50.4776 71.0928 49.8727C71.3059 49.2678 71.4125 48.5794 71.4125 47.8074C71.4125 47.0354 71.3059 46.347 71.0928 45.7421C70.8854 45.1372 70.5772 44.6591 70.1682 44.3077C69.7591 43.9563 69.2493 43.7806 68.6387 43.7806C68.0222 43.7806 67.5038 43.9563 67.0832 44.3077C66.6684 44.6591 66.3545 45.1372 66.1413 45.7421C65.9339 46.347 65.8302 47.0354 65.8302 47.8074C65.8302 48.5794 65.9339 49.2678 66.1413 49.8727C66.3545 50.4776 66.6684 50.9557 67.0832 51.3071C67.5038 51.6528 68.0222 51.8256 68.6387 51.8256ZM80.8833 50.5985L80.892 46.1828H81.4277L85.6792 41.145H89.9048L84.1929 47.816H83.3202L80.8833 50.5985ZM77.5478 54.418V36.7207H81.229V54.418H77.5478ZM85.8434 54.418L81.9376 48.637L84.3917 46.0359L90.1554 54.418H85.8434ZM97.2132 54.6772C95.8478 54.6772 94.6726 54.4007 93.6875 53.8476C92.7082 53.2888 91.9535 52.4996 91.4235 51.4799C90.8935 50.4545 90.6285 49.2419 90.6285 47.842C90.6285 46.4766 90.8935 45.2784 91.4235 44.2472C91.9535 43.216 92.6995 42.4124 93.6616 41.8363C94.6294 41.2602 95.7643 40.9722 97.0663 40.9722C97.9419 40.9722 98.7571 41.1133 99.5117 41.3956C100.272 41.6721 100.935 42.0898 101.499 42.6486C102.07 43.2074 102.513 43.9102 102.83 44.757C103.147 45.5981 103.305 46.5832 103.305 47.7123V48.7234H92.0975V46.4421H99.8401C99.8401 45.9121 99.7249 45.4426 99.4944 45.0336C99.264 44.6245 98.9443 44.3048 98.5353 44.0744C98.132 43.8382 97.6625 43.7201 97.1267 43.7201C96.5679 43.7201 96.0725 43.8497 95.6404 44.1089C95.2141 44.3624 94.88 44.7052 94.6381 45.1372C94.3961 45.5636 94.2722 46.0388 94.2665 46.5631V48.732C94.2665 49.3888 94.3875 49.9562 94.6294 50.4343C94.8771 50.9125 95.2257 51.2812 95.675 51.5404C96.1244 51.7997 96.6572 51.9293 97.2736 51.9293C97.6827 51.9293 98.0571 51.8717 98.397 51.7565C98.7369 51.6412 99.0278 51.4684 99.2698 51.238C99.5117 51.0075 99.6961 50.7253 99.8228 50.3911L103.227 50.6158C103.055 51.4339 102.7 52.1482 102.165 52.7588C101.635 53.3637 100.949 53.8361 100.108 54.176C99.2727 54.5101 98.3077 54.6772 97.2132 54.6772Z" fill="#593DFA"/>
</svg>
