<svg width="44" height="44" viewBox="0 0 44 44" fill="none" xmlns="http://www.w3.org/2000/svg">
<rect width="43.6636" height="43.6636" rx="7.43211" fill="#E17100" fill-opacity="0.1"/>
<path d="M22.5741 13.6089L30.5952 27.5013C30.7175 27.7132 30.7819 27.9535 30.7819 28.1981C30.7819 28.4427 30.7175 28.683 30.5952 28.8948C30.4729 29.1067 30.297 29.2826 30.0852 29.4049C29.8734 29.5272 29.6331 29.5916 29.3884 29.5916H13.3462C13.1016 29.5916 12.8613 29.5272 12.6495 29.4049C12.4377 29.2826 12.2617 29.1067 12.1394 28.8948C12.0171 28.683 11.9528 28.4427 11.9528 28.1981C11.9528 27.9535 12.0171 27.7132 12.1395 27.5013L20.1606 13.6089C20.6966 12.6799 22.0372 12.6799 22.5741 13.6089ZM21.3673 24.6195C21.121 24.6195 20.8847 24.7174 20.7104 24.8916C20.5362 25.0659 20.4383 25.3022 20.4383 25.5485C20.4383 25.7949 20.5362 26.0312 20.7104 26.2055C20.8847 26.3797 21.121 26.4776 21.3673 26.4776C21.6137 26.4776 21.85 26.3797 22.0243 26.2055C22.1985 26.0312 22.2964 25.7949 22.2964 25.5485C22.2964 25.3022 22.1985 25.0659 22.0243 24.8916C21.85 24.7174 21.6137 24.6195 21.3673 24.6195ZM21.3673 18.1164C21.1398 18.1165 20.9202 18.2 20.7501 18.3512C20.5801 18.5024 20.4715 18.7108 20.4448 18.9368L20.4383 19.0455V22.7615C20.4386 22.9983 20.5293 23.226 20.6918 23.3982C20.8544 23.5704 21.0765 23.674 21.3129 23.6879C21.5493 23.7018 21.782 23.6249 21.9636 23.4729C22.1452 23.3209 22.2619 23.1053 22.2899 22.8702L22.2964 22.7615V19.0455C22.2964 18.7991 22.1985 18.5628 22.0243 18.3885C21.85 18.2143 21.6137 18.1164 21.3673 18.1164Z" fill="#E17100"/>
</svg>
