<svg width="44" height="44" viewBox="0 0 44 44" fill="none" xmlns="http://www.w3.org/2000/svg">
<rect width="43.6636" height="43.6636" rx="7.43211" fill="#3B82F6" fill-opacity="0.1"/>
<path fill-rule="evenodd" clip-rule="evenodd" d="M23.8594 13.2705C22.0424 13.2249 20.6926 13.2249 18.8756 13.2705L18.8061 13.2723C17.4039 13.3074 16.2501 13.3363 15.3202 13.4981C14.3333 13.6697 13.5069 14.0041 12.807 14.7058C12.1107 15.4038 11.7773 16.2172 11.6085 17.1885C11.45 18.1001 11.426 19.225 11.3969 20.5864L11.3955 20.6564C11.3757 21.5836 11.3757 22.0759 11.3955 23.0029L11.397 23.073C11.426 24.4345 11.45 25.5593 11.6085 26.471C11.7774 27.4422 12.1107 28.2556 12.807 28.9536C13.5069 29.6553 14.3333 29.9897 15.3202 30.1614C16.2501 30.3231 17.4039 30.352 18.8061 30.3871L18.8756 30.3889C20.6926 30.4345 22.0424 30.4345 23.8594 30.3889L23.9289 30.3871C25.3311 30.352 26.4849 30.323 27.4148 30.1613C28.4017 29.9897 29.2281 29.6553 29.928 28.9536C30.6243 28.2556 30.9577 27.4422 31.1265 26.4709C31.2851 25.5593 31.3091 24.4345 31.3381 23.073L31.3395 23.0029C31.3593 22.0758 31.3593 21.5836 31.3395 20.6564L31.3381 20.5865C31.3091 19.225 31.285 18.1001 31.1265 17.1885C30.9576 16.2172 30.6243 15.4038 29.928 14.7058C29.5347 14.3115 29.1014 14.0331 28.6222 13.8345C28.5492 13.7947 28.4711 13.7647 28.3896 13.7455C28.0833 13.6375 27.7587 13.5579 27.4147 13.4981C26.4849 13.3363 25.3311 13.3074 23.9289 13.2723L23.8594 13.2705ZM29.4312 18.9036C29.4131 18.5269 29.4041 18.3385 29.2677 18.2633C29.1314 18.1881 28.9636 18.2831 28.6282 18.4731L24.6932 20.7028C23.4858 21.3869 22.4647 21.8297 21.3673 21.8297C20.27 21.8297 19.2489 21.3869 18.0415 20.7028L14.1068 18.4733C13.7714 18.2833 13.6037 18.1883 13.4673 18.2635C13.3308 18.3387 13.3219 18.5271 13.3039 18.9038C13.2797 19.4115 13.2665 20.0001 13.2517 20.696C13.2324 21.5967 13.2325 22.0627 13.2517 22.9634C13.2826 24.4126 13.3061 25.3965 13.4377 26.1536C13.5617 26.8666 13.7685 27.2902 14.1223 27.6449C14.4725 27.9959 14.9018 28.2063 15.6388 28.3345C16.4175 28.4699 17.4331 28.4978 18.9223 28.5351C20.7081 28.5799 22.0269 28.5799 23.8128 28.5351C25.3019 28.4978 26.3176 28.4699 27.0963 28.3345C27.8332 28.2063 28.2626 27.9959 28.6127 27.6449C28.9665 27.2902 29.1734 26.8666 29.2973 26.1536C29.4289 25.3965 29.4524 24.4126 29.4834 22.9634C29.5026 22.0627 29.5026 21.5967 29.4834 20.696C29.4685 20 29.4553 19.4114 29.4312 18.9036Z" fill="#3B82F6"/>
</svg>
