<svg width="44" height="44" viewBox="0 0 44 44" fill="none" xmlns="http://www.w3.org/2000/svg">
<rect width="43.6636" height="43.6636" rx="7.43211" fill="#9810FA" fill-opacity="0.1"/>
<path fill-rule="evenodd" clip-rule="evenodd" d="M22.4234 12.0012C21.9817 11.8445 21.513 11.8451 20.9835 11.8458C19.5661 11.8458 18.2584 11.8459 17.3491 11.9526C16.4083 12.063 15.6022 12.298 14.9194 12.8515C14.6687 13.0546 14.4404 13.2841 14.2383 13.5361C13.6877 14.2225 13.4539 15.0328 13.344 15.9785C13.2379 16.8925 13.2379 18.0412 13.2379 19.466V23.7149C13.2379 25.3704 13.2379 26.7048 13.3782 27.7543C13.524 28.8438 13.8357 29.7613 14.5606 30.4899C15.2855 31.2186 16.1982 31.5319 17.2821 31.6784C18.3262 31.8195 19.7857 31.8195 21.4327 31.8195C23.0796 31.8195 24.4071 31.8195 25.4512 31.6784C26.5352 31.5319 27.4479 31.2186 28.1727 30.4899C28.8976 29.7613 29.2094 28.8438 29.355 27.7543C29.4954 26.7048 29.4954 25.3703 29.4954 23.7148L29.4955 20.4873C29.4964 19.8709 29.4973 19.324 29.2892 18.8188C29.081 18.3137 28.6956 17.9275 28.2615 17.4924L23.8181 13.026C23.4443 12.6492 23.1133 12.3156 22.6908 12.1125C22.6036 12.0706 22.5144 12.0334 22.4234 12.0012ZM26.8955 18.6873C27.4696 19.2645 27.5675 19.3857 27.6203 19.5137C26.3498 19.5137 25.7473 19.513 24.9418 19.4047C24.1056 19.2923 23.4015 19.0518 22.8424 18.4926C22.2832 17.9334 22.0427 17.2293 21.9303 16.3931C21.8222 15.5893 21.8222 14.9876 21.8222 13.7224V13.7146C21.9909 13.7654 22.1223 13.8894 22.6175 14.3871L26.8955 18.6873ZM25.7796 26.4776C25.7796 26.0928 25.4677 25.7809 25.0829 25.7809H17.6507C17.2659 25.7809 16.954 26.0928 16.954 26.4776C16.954 26.8625 17.2659 27.1744 17.6507 27.1744H25.0829C25.4677 27.1744 25.7796 26.8625 25.7796 26.4776ZM21.3668 22.0648C21.7516 22.0648 22.0636 22.3768 22.0636 22.7616C22.0636 23.1465 21.7516 23.4583 21.3668 23.4583H17.6507C17.2659 23.4583 16.954 23.1465 16.954 22.7616C16.954 22.3768 17.2659 22.0648 17.6507 22.0648H21.3668Z" fill="#9810FA"/>
</svg>
