<svg width="44" height="44" viewBox="0 0 44 44" fill="none" xmlns="http://www.w3.org/2000/svg">
<rect width="43.6636" height="43.6636" rx="7.43211" fill="#4F39F6" fill-opacity="0.1"/>
<path fill-rule="evenodd" clip-rule="evenodd" d="M17.7444 11.8457C18.2447 11.8457 18.6502 12.2522 18.6502 12.7536V13.6692C19.1871 13.6615 19.7682 13.6615 20.3955 13.6615H22.3396C22.967 13.6615 23.5481 13.6615 24.0849 13.6692V12.7536C24.0849 12.2522 24.4904 11.8457 24.9907 11.8457C25.491 11.8457 25.8965 12.2522 25.8965 12.7536V13.7497C26.0603 13.7646 26.2179 13.7821 26.3697 13.8026C27.4567 13.9491 28.3721 14.2624 29.0989 14.9911C29.8259 15.7197 30.1386 16.6372 30.2847 17.7268C30.4254 18.7763 30.4255 20.1107 30.4255 21.7662V23.7148C30.4255 25.3703 30.4254 26.7047 30.2847 27.7542C30.1386 28.8439 29.8259 29.7613 29.0989 30.4899C28.3721 31.2185 27.4567 31.532 26.3697 31.6785C25.3226 31.8195 23.9913 31.8195 22.3396 31.8195H20.3955C18.7439 31.8195 17.4126 31.8195 16.3655 31.6785C15.2784 31.532 14.3631 31.2185 13.6362 30.4899C12.9093 29.7613 12.5966 28.8439 12.4504 27.7542C12.3096 26.7047 12.3097 25.3704 12.3097 23.7149V21.7662C12.3097 20.1107 12.3096 18.7763 12.4504 17.7268C12.5966 16.6372 12.9093 15.7197 13.6362 14.9911C14.3631 14.2624 15.2784 13.9491 16.3655 13.8026C16.5172 13.7821 16.6749 13.7646 16.8386 13.7497V12.7536C16.8386 12.2522 17.2442 11.8457 17.7444 11.8457ZM14.1341 19.7423C14.1217 20.3423 14.1213 21.0316 14.1213 21.8326V23.6484C14.1213 25.386 14.1232 26.5979 14.2458 27.5123C14.365 28.4005 14.5829 28.8709 14.9172 29.2059C15.2514 29.541 15.7207 29.7594 16.6069 29.8789C17.5192 30.0018 18.7282 30.0037 20.4618 30.0037H22.2734C24.007 30.0037 25.216 30.0018 26.1283 29.8789C27.0145 29.7594 27.4837 29.541 27.818 29.2059C28.1522 28.8709 28.3702 28.4005 28.4893 27.5123C28.6119 26.5979 28.6139 25.386 28.6139 23.6484V21.8326C28.6139 21.0316 28.6135 20.3423 28.6011 19.7423H14.1341Z" fill="#4F39F6"/>
<path fill-rule="evenodd" clip-rule="evenodd" d="M16.7223 23.015C16.7223 22.5019 17.1382 22.0859 17.6513 22.0859H17.6596C18.1727 22.0859 18.5886 22.5019 18.5886 23.015C18.5886 23.528 18.1727 23.944 17.6596 23.944H17.6513C17.1382 23.944 16.7223 23.528 16.7223 23.015ZM20.4342 23.015C20.4342 22.5019 20.8501 22.0859 21.3632 22.0859H21.3715C21.8846 22.0859 22.3005 22.5019 22.3005 23.015C22.3005 23.528 21.8846 23.944 21.3715 23.944H21.3632C20.8501 23.944 20.4342 23.528 20.4342 23.015ZM24.146 23.015C24.146 22.5019 24.562 22.0859 25.075 22.0859H25.0834C25.5965 22.0859 26.0124 22.5019 26.0124 23.015C26.0124 23.528 25.5965 23.944 25.0834 23.944H25.075C24.562 23.944 24.146 23.528 24.146 23.015ZM16.7223 26.731C16.7223 26.218 17.1382 25.802 17.6513 25.802H17.6596C18.1727 25.802 18.5886 26.218 18.5886 26.731C18.5886 27.2441 18.1727 27.66 17.6596 27.66H17.6513C17.1382 27.66 16.7223 27.2441 16.7223 26.731ZM20.4342 26.731C20.4342 26.218 20.8501 25.802 21.3632 25.802H21.3715C21.8846 25.802 22.3005 26.218 22.3005 26.731C22.3005 27.2441 21.8846 27.66 21.3715 27.66H21.3632C20.8501 27.66 20.4342 27.2441 20.4342 26.731Z" fill="#4F39F6"/>
</svg>
