<svg width="44" height="44" viewBox="0 0 44 44" fill="none" xmlns="http://www.w3.org/2000/svg">
<rect width="43.6636" height="43.6636" rx="7.43211" fill="#593DFA" fill-opacity="0.1"/>
<path d="M14.8645 19.9718H17.187L23.2256 26.0104V28.333C23.2256 29.3591 24.0574 30.191 25.0836 30.191H27.1978C27.4461 30.191 27.5705 29.8908 27.3949 29.7152L26.0126 28.333V26.4749H27.8707L29.2529 27.8572C29.4285 28.0328 29.7287 27.9084 29.7287 27.6601V25.5459C29.7287 24.5197 28.8968 23.6879 27.8707 23.6879H25.5481L19.5095 17.6493V15.3268C19.5095 14.3006 18.6777 13.4688 17.6515 13.4688H15.5373C15.289 13.4688 15.1647 13.769 15.3402 13.9445L16.7225 15.3268V17.1848H14.8645L13.4822 15.8026C13.3066 15.627 13.0064 15.7513 13.0064 15.9996V18.1138C13.0064 19.14 13.8383 19.9718 14.8645 19.9718Z" fill="#593DFA"/>
<path d="M24.0065 20.1772L23.0211 19.1919L26.4202 15.7928L25.984 15.3564C25.8323 15.2047 25.7589 14.9916 25.7851 14.7786C25.8113 14.5657 25.9342 14.3767 26.1181 14.2663L28.4406 12.8728C28.7148 12.7083 29.0658 12.7514 29.2918 12.9775L30.2208 13.9065C30.4469 14.1326 30.4901 14.4835 30.3256 14.7577L28.9321 17.0802C28.8217 17.2642 28.6328 17.3871 28.4197 17.4133C28.2068 17.4395 27.9937 17.3662 27.842 17.2144L27.4056 16.7781L24.0065 20.1772Z" fill="#593DFA"/>
<path d="M21.1062 25.8622L17.1344 29.834C16.1367 30.8318 14.5191 30.8318 13.5214 29.834L13.362 29.6747C12.3643 28.6769 12.3643 27.0593 13.362 26.0617L17.3338 22.0898L21.1062 25.8622Z" fill="#593DFA"/>
</svg>
